<svg xmlns="http://www.w3.org/2000/svg" xmlns:xlink="http://www.w3.org/1999/xlink" width="220" zoomAndPan="magnify" viewBox="0 0 165 30.000001" height="40" preserveAspectRatio="xMidYMid meet" version="1.0"><defs><g/><clipPath id="id1"><path d="M 2.660156 7 L 16 7 L 16 25 L 2.660156 25 Z M 2.660156 7 " clip-rule="nonzero"/></clipPath><clipPath id="id2"><path d="M 149 7 L 162.335938 7 L 162.335938 25 L 149 25 Z M 149 7 " clip-rule="nonzero"/></clipPath></defs><g clip-path="url(#id1)"><g fill="#ffffff" fill-opacity="1"><g transform="translate(1.992667, 24.032757)"><g><path d="M 0.765625 0 L 0.765625 -1.953125 L 1.5625 -2.03125 C 2.03125 -2.070312 2.265625 -2.296875 2.265625 -2.703125 L 2.265625 -13.90625 L 0.890625 -13.984375 L 0.890625 -16.03125 L 7.78125 -16.03125 C 9.582031 -16.03125 10.984375 -15.609375 11.984375 -14.765625 C 12.992188 -13.921875 13.5 -12.65625 13.5 -10.96875 C 13.5 -9.28125 12.925781 -7.96875 11.78125 -7.03125 C 10.644531 -6.09375 9.132812 -5.625 7.25 -5.625 L 5.203125 -5.625 L 5.203125 -2.125 L 7.515625 -2.046875 L 7.515625 0 Z M 5.203125 -7.953125 L 6.9375 -7.953125 C 9.289062 -7.953125 10.46875 -8.910156 10.46875 -10.828125 C 10.46875 -11.984375 10.164062 -12.75 9.5625 -13.125 C 8.957031 -13.5 7.992188 -13.6875 6.671875 -13.6875 L 5.203125 -13.6875 Z M 5.203125 -7.953125 "/></g></g></g></g><g fill="#ffffff" fill-opacity="1"><g transform="translate(16.217835, 24.032757)"><g><path d="M 0.765625 0 L 0.765625 -1.953125 L 1.5625 -2.03125 C 2.03125 -2.070312 2.265625 -2.296875 2.265625 -2.703125 L 2.265625 -13.90625 L 0.890625 -13.984375 L 0.890625 -16.03125 L 7.46875 -16.03125 C 9.332031 -16.03125 10.765625 -15.679688 11.765625 -14.984375 C 12.765625 -14.296875 13.265625 -13.164062 13.265625 -11.59375 C 13.265625 -10.5 12.976562 -9.597656 12.40625 -8.890625 C 11.832031 -8.179688 11.148438 -7.671875 10.359375 -7.359375 C 10.941406 -7.148438 11.398438 -6.65625 11.734375 -5.875 L 13.484375 -2.09375 L 14.84375 -2.046875 L 14.84375 0 L 8.890625 0 L 8.890625 -1.953125 L 9.59375 -2.03125 C 9.96875 -2.070312 10.15625 -2.210938 10.15625 -2.453125 C 10.15625 -2.554688 10.117188 -2.671875 10.046875 -2.796875 L 8.921875 -5.203125 C 8.742188 -5.609375 8.546875 -5.894531 8.328125 -6.0625 C 8.109375 -6.226562 7.800781 -6.3125 7.40625 -6.3125 L 5.203125 -6.3125 L 5.203125 -2.125 L 6.78125 -2.046875 L 6.78125 0 Z M 5.203125 -8.609375 L 7.3125 -8.609375 C 9.28125 -8.609375 10.265625 -9.492188 10.265625 -11.265625 C 10.265625 -12.273438 10.003906 -12.929688 9.484375 -13.234375 C 8.960938 -13.535156 8.125 -13.6875 6.96875 -13.6875 L 5.203125 -13.6875 Z M 5.203125 -8.609375 "/></g></g></g><g fill="#ffffff" fill-opacity="1"><g transform="translate(31.31099, 24.032757)"><g><path d="M 8.328125 -16.328125 C 10.234375 -16.328125 11.828125 -15.648438 13.109375 -14.296875 C 14.398438 -12.941406 15.046875 -10.878906 15.046875 -8.109375 C 15.046875 -5.335938 14.40625 -3.238281 13.125 -1.8125 C 11.84375 -0.394531 10.113281 0.3125 7.9375 0.3125 C 5.757812 0.3125 4.050781 -0.394531 2.8125 -1.8125 C 1.582031 -3.226562 0.96875 -5.285156 0.96875 -7.984375 C 0.96875 -9.460938 1.179688 -10.757812 1.609375 -11.875 C 2.046875 -12.988281 2.617188 -13.851562 3.328125 -14.46875 C 4.753906 -15.707031 6.421875 -16.328125 8.328125 -16.328125 Z M 3.984375 -8.09375 C 3.984375 -4.113281 5.363281 -2.125 8.125 -2.125 C 9.601562 -2.125 10.640625 -2.734375 11.234375 -3.953125 C 11.773438 -5.023438 12.046875 -6.34375 12.046875 -7.90625 C 12.046875 -9.300781 11.804688 -10.585938 11.328125 -11.765625 C 11.054688 -12.410156 10.644531 -12.914062 10.09375 -13.28125 C 9.539062 -13.65625 8.820312 -13.84375 7.9375 -13.84375 C 7.050781 -13.84375 6.289062 -13.550781 5.65625 -12.96875 C 5.019531 -12.394531 4.582031 -11.695312 4.34375 -10.875 C 4.101562 -10.050781 3.984375 -9.125 3.984375 -8.09375 Z M 3.984375 -8.09375 "/></g></g></g><g fill="#ffffff" fill-opacity="1"><g transform="translate(47.32034, 24.032757)"><g><path d="M 9.46875 -3.234375 C 9.195312 -0.867188 7.613281 0.3125 4.71875 0.3125 C 3.207031 0.3125 1.859375 -0.0234375 0.671875 -0.703125 L 0.671875 -4.921875 L 3.140625 -5.09375 L 3.140625 -3.1875 C 3.140625 -2.945312 3.171875 -2.769531 3.234375 -2.65625 C 3.296875 -2.539062 3.460938 -2.429688 3.734375 -2.328125 C 4.003906 -2.222656 4.425781 -2.171875 5 -2.171875 C 5.570312 -2.171875 5.984375 -2.34375 6.234375 -2.6875 C 6.492188 -3.03125 6.625 -3.585938 6.625 -4.359375 L 6.625 -13.890625 L 4.75 -13.984375 L 4.75 -16.03125 L 11.0625 -16.03125 L 11.0625 -14.078125 L 10.265625 -14 C 9.804688 -13.957031 9.578125 -13.710938 9.578125 -13.265625 L 9.578125 -5.765625 C 9.578125 -4.617188 9.539062 -3.773438 9.46875 -3.234375 Z M 9.46875 -3.234375 "/></g></g></g><g fill="#ffffff" fill-opacity="1"><g transform="translate(58.748702, 24.032757)"><g><path d="M 12.265625 0 L 0.8125 0 L 0.8125 -1.953125 L 1.609375 -2.03125 C 2.078125 -2.070312 2.3125 -2.296875 2.3125 -2.703125 L 2.3125 -13.90625 L 0.9375 -13.984375 L 0.9375 -16.03125 L 11.984375 -16.03125 L 11.984375 -12.03125 L 9.515625 -11.859375 L 9.515625 -12.828125 C 9.515625 -13.097656 9.472656 -13.289062 9.390625 -13.40625 C 9.316406 -13.519531 9.128906 -13.578125 8.828125 -13.578125 L 5.25 -13.578125 L 5.25 -9.453125 L 10.828125 -9.453125 L 10.828125 -6.984375 L 5.25 -6.984375 L 5.25 -2.484375 L 9.140625 -2.484375 C 9.429688 -2.484375 9.613281 -2.539062 9.6875 -2.65625 C 9.769531 -2.78125 9.8125 -2.976562 9.8125 -3.25 L 9.8125 -4.453125 L 12.265625 -4.296875 Z M 12.265625 0 "/></g></g></g><g fill="#ffffff" fill-opacity="1"><g transform="translate(71.985344, 24.032757)"><g><path d="M 5.25 -2.703125 L 5.25 -13.640625 L 3.375 -13.640625 C 3.007812 -13.640625 2.828125 -13.394531 2.828125 -12.90625 L 2.828125 -11.765625 L 0.359375 -11.9375 L 0.359375 -16.03125 L 12.96875 -16.03125 L 12.96875 -11.9375 L 10.515625 -11.765625 L 10.515625 -12.90625 C 10.515625 -13.175781 10.472656 -13.363281 10.390625 -13.46875 C 10.304688 -13.582031 10.113281 -13.640625 9.8125 -13.640625 L 8.171875 -13.640625 L 8.171875 -2.125 L 10.078125 -2.046875 L 10.078125 0 L 3.28125 0 L 3.28125 -1.953125 L 4.5625 -2.03125 C 5.019531 -2.070312 5.25 -2.296875 5.25 -2.703125 Z M 5.25 -2.703125 "/></g></g></g><g fill="#ffffff" fill-opacity="1"><g transform="translate(85.318427, 24.032757)"><g><path d="M 8.328125 -16.328125 C 10.234375 -16.328125 11.828125 -15.648438 13.109375 -14.296875 C 14.398438 -12.941406 15.046875 -10.878906 15.046875 -8.109375 C 15.046875 -5.335938 14.40625 -3.238281 13.125 -1.8125 C 11.84375 -0.394531 10.113281 0.3125 7.9375 0.3125 C 5.757812 0.3125 4.050781 -0.394531 2.8125 -1.8125 C 1.582031 -3.226562 0.96875 -5.285156 0.96875 -7.984375 C 0.96875 -9.460938 1.179688 -10.757812 1.609375 -11.875 C 2.046875 -12.988281 2.617188 -13.851562 3.328125 -14.46875 C 4.753906 -15.707031 6.421875 -16.328125 8.328125 -16.328125 Z M 3.984375 -8.09375 C 3.984375 -4.113281 5.363281 -2.125 8.125 -2.125 C 9.601562 -2.125 10.640625 -2.734375 11.234375 -3.953125 C 11.773438 -5.023438 12.046875 -6.34375 12.046875 -7.90625 C 12.046875 -9.300781 11.804688 -10.585938 11.328125 -11.765625 C 11.054688 -12.410156 10.644531 -12.914062 10.09375 -13.28125 C 9.539062 -13.65625 8.820312 -13.84375 7.9375 -13.84375 C 7.050781 -13.84375 6.289062 -13.550781 5.65625 -12.96875 C 5.019531 -12.394531 4.582031 -11.695312 4.34375 -10.875 C 4.101562 -10.050781 3.984375 -9.125 3.984375 -8.09375 Z M 3.984375 -8.09375 "/></g></g></g><g fill="#ffffff" fill-opacity="1"><g transform="translate(101.327777, 24.032757)"><g><path d="M 5.8125 -2.171875 C 7.738281 -2.171875 8.703125 -2.941406 8.703125 -4.484375 C 8.703125 -5.285156 8.273438 -5.878906 7.421875 -6.265625 C 6.972656 -6.492188 6.390625 -6.703125 5.671875 -6.890625 C 4.960938 -7.085938 4.367188 -7.285156 3.890625 -7.484375 C 3.421875 -7.679688 2.941406 -7.957031 2.453125 -8.3125 C 1.503906 -9.019531 1.03125 -10.109375 1.03125 -11.578125 C 1.03125 -13.054688 1.539062 -14.21875 2.5625 -15.0625 C 3.582031 -15.90625 4.914062 -16.328125 6.5625 -16.328125 C 8.21875 -16.328125 9.75 -15.992188 11.15625 -15.328125 L 11.15625 -11.71875 L 8.703125 -11.546875 L 8.703125 -12.953125 C 8.703125 -13.191406 8.671875 -13.367188 8.609375 -13.484375 C 8.429688 -13.785156 7.863281 -13.9375 6.90625 -13.9375 C 5.945312 -13.9375 5.238281 -13.765625 4.78125 -13.421875 C 4.320312 -13.085938 4.09375 -12.566406 4.09375 -11.859375 C 4.09375 -11.347656 4.285156 -10.898438 4.671875 -10.515625 C 4.929688 -10.253906 5.3125 -10.039062 5.8125 -9.875 C 6.320312 -9.707031 6.863281 -9.535156 7.4375 -9.359375 C 8.007812 -9.179688 8.515625 -8.988281 8.953125 -8.78125 C 9.398438 -8.570312 9.863281 -8.28125 10.34375 -7.90625 C 11.320312 -7.1875 11.8125 -6.070312 11.8125 -4.5625 C 11.8125 -3.050781 11.269531 -1.859375 10.1875 -0.984375 C 9.101562 -0.117188 7.671875 0.3125 5.890625 0.3125 C 4.117188 0.3125 2.523438 -0.015625 1.109375 -0.671875 L 1.109375 -4.484375 L 3.5625 -4.65625 L 3.5625 -3.1875 C 3.5625 -2.945312 3.59375 -2.769531 3.65625 -2.65625 C 3.726562 -2.539062 3.925781 -2.429688 4.25 -2.328125 C 4.582031 -2.222656 5.101562 -2.171875 5.8125 -2.171875 Z M 5.8125 -2.171875 "/></g></g></g><g fill="#ffffff" fill-opacity="1"><g transform="translate(113.902948, 24.032757)"><g><path d="M 21.21875 -14.078125 L 20.421875 -14 C 20.003906 -13.96875 19.738281 -13.679688 19.625 -13.140625 L 16.59375 0 L 13.28125 0 L 10.75 -10.734375 L 10.6875 -10.734375 L 8.21875 0 L 4.828125 0 L 1.5 -13.90625 L 0.125 -13.984375 L 0.125 -16.03125 L 6.09375 -16.03125 L 6.09375 -14.078125 L 5.296875 -14 C 4.804688 -13.957031 4.5625 -13.75 4.5625 -13.375 C 4.5625 -13.3125 4.566406 -13.238281 4.578125 -13.15625 L 6.671875 -3.859375 L 6.78125 -3.859375 L 9.28125 -14.75 L 12.390625 -14.75 L 15 -3.8125 L 15.046875 -3.8125 L 17.09375 -13.890625 L 15.796875 -13.984375 L 15.796875 -16.03125 L 21.21875 -16.03125 Z M 21.21875 -14.078125 "/></g></g></g><g fill="#ffffff" fill-opacity="1"><g transform="translate(135.240712, 24.032757)"><g><path d="M 12.265625 0 L 0.8125 0 L 0.8125 -1.953125 L 1.609375 -2.03125 C 2.078125 -2.070312 2.3125 -2.296875 2.3125 -2.703125 L 2.3125 -13.90625 L 0.9375 -13.984375 L 0.9375 -16.03125 L 11.984375 -16.03125 L 11.984375 -12.03125 L 9.515625 -11.859375 L 9.515625 -12.828125 C 9.515625 -13.097656 9.472656 -13.289062 9.390625 -13.40625 C 9.316406 -13.519531 9.128906 -13.578125 8.828125 -13.578125 L 5.25 -13.578125 L 5.25 -9.453125 L 10.828125 -9.453125 L 10.828125 -6.984375 L 5.25 -6.984375 L 5.25 -2.484375 L 9.140625 -2.484375 C 9.429688 -2.484375 9.613281 -2.539062 9.6875 -2.65625 C 9.769531 -2.78125 9.8125 -2.976562 9.8125 -3.25 L 9.8125 -4.453125 L 12.265625 -4.296875 Z M 12.265625 0 "/></g></g></g><g clip-path="url(#id2)"><g fill="#ffffff" fill-opacity="1"><g transform="translate(148.477355, 24.032757)"><g><path d="M 0.9375 -16.03125 L 7.734375 -16.03125 C 11.210938 -16.03125 12.953125 -14.6875 12.953125 -12 C 12.953125 -10.519531 12.210938 -9.394531 10.734375 -8.625 C 11.679688 -8.382812 12.421875 -7.941406 12.953125 -7.296875 C 13.492188 -6.660156 13.765625 -5.828125 13.765625 -4.796875 C 13.765625 -3.234375 13.238281 -2.039062 12.1875 -1.21875 C 11.132812 -0.40625 9.601562 0 7.59375 0 L 0.8125 0 L 0.8125 -1.953125 L 1.609375 -2.03125 C 2.078125 -2.070312 2.3125 -2.296875 2.3125 -2.703125 L 2.3125 -13.90625 L 0.9375 -13.984375 Z M 5.25 -7.3125 L 5.25 -2.265625 L 7.515625 -2.265625 C 9.609375 -2.265625 10.65625 -3.117188 10.65625 -4.828125 C 10.65625 -5.628906 10.394531 -6.242188 9.875 -6.671875 C 9.351562 -7.097656 8.609375 -7.3125 7.640625 -7.3125 Z M 5.25 -13.8125 L 5.25 -9.453125 L 7.046875 -9.453125 C 8.035156 -9.453125 8.765625 -9.65625 9.234375 -10.0625 C 9.710938 -10.476562 9.953125 -11.054688 9.953125 -11.796875 C 9.953125 -12.535156 9.710938 -13.054688 9.234375 -13.359375 C 8.765625 -13.660156 8.085938 -13.8125 7.203125 -13.8125 Z M 5.25 -13.8125 "/></g></g></g></g></svg>